<?xml version="1.0" ?>
<!DOCTYPE svg  PUBLIC '-//W3C//DTD SVG 1.1//EN'  'http://www.w3.org/Graphics/SVG/1.1/DTD/svg11.dtd'>
<!-- Uploaded to: SVG Repo, www.svgrepo.com, Generator: SVG Repo Mixer Tools -->
<svg fill="#000000" width="800px" height="800px" viewBox="0 0 100 100" style="fill-rule:evenodd;clip-rule:evenodd;stroke-linejoin:round;stroke-miterlimit:2;" version="1.1" xml:space="preserve" xmlns="http://www.w3.org/2000/svg" xmlns:serif="http://www.serif.com/" xmlns:xlink="http://www.w3.org/1999/xlink">
<g id="Icon">
<path d="M55.199,30.165c-0.395,2.224 -0.921,4.519 -1.562,6.809c-0.508,-1.816 -1.279,-3.642 -2.227,-4.961c-0.764,-1.062 -1.778,-1.977 -2.647,-2.955c-0.568,-0.639 -1.494,-1.538 -2.477,-2.157c-0.692,-0.437 -1.418,-0.728 -2.089,-0.785c-0.181,-0.071 -0.385,-0.09 -0.588,-0.043c-0.538,0.124 -0.874,0.662 -0.75,1.2c0.925,4.005 3.438,8.439 6.301,11.352c0.563,0.572 1.64,1.71 2.675,2.346c0.158,0.098 0.317,0.184 0.475,0.258c-0.932,2.707 -2.014,5.336 -3.212,7.752c-1.046,2.11 -2.553,3.931 -3.68,5.983c0.25,-4.816 -0.05,-9.587 -0.223,-14.424c-0.018,-0.504 -0.146,-0.995 -0.28,-1.481c-0.089,-0.324 -0.187,-0.644 -0.187,-0.972c0,-0.06 -0.005,-0.119 -0.015,-0.176c0.036,-0.204 0.01,-0.422 -0.09,-0.621c-0.247,-0.494 -0.848,-0.695 -1.342,-0.448c-0.282,0.142 -0.562,0.4 -0.798,0.725c-0.21,0.289 -0.39,0.637 -0.531,0.857c-0.964,1.503 -1.347,3.176 -1.775,4.888c-1.005,4.017 -1.564,8.353 -0.538,12.459c0.527,2.107 1.696,4.257 2.58,6.277c-1.009,2.696 -1.804,5.48 -2.168,8.093c-0.023,0.168 -0.045,0.336 -0.065,0.504c-0.742,-2.213 -1.729,-4.368 -2.865,-6.401c-1.025,-1.834 -2.105,-3.602 -3.295,-5.332c-0.267,-0.389 -0.663,-0.794 -1.036,-1.211c-0.247,-0.278 -0.496,-0.553 -0.597,-0.855c-0.041,-0.125 -0.106,-0.236 -0.186,-0.331c-0.166,-0.324 -0.503,-0.545 -0.891,-0.545c-0.552,-0 -1,0.448 -1,1c0,5.483 1.333,10.905 4.5,15.4c0.5,0.71 0.913,1.448 1.524,2.077c0.605,0.623 1.346,1.05 2.11,1.442c0.565,0.291 1.144,0.559 1.648,0.936c0.06,0.74 0.143,1.483 0.247,2.224c-0.986,-0.221 -2.025,-0.243 -3.012,-0.243c-3.387,0 -7.262,1.195 -9.28,4.143c-0.609,0.891 -0.795,1.896 -1.09,2.909c-0.174,0.596 -0.491,1.308 -0.55,1.956c-0.006,0.046 -0.01,0.092 -0.01,0.139c0,0.009 0,0.018 0.001,0.027c-0.001,0.012 -0.001,0.025 -0.001,0.037c0,0.552 0.448,1 1,1c0.215,0 0.413,-0.067 0.576,-0.182c0.136,-0.055 0.273,-0.129 0.408,-0.222c0.343,-0.238 0.688,-0.657 0.916,-0.835c1.038,-0.814 2.077,-1.709 3.156,-2.462c1.282,-0.895 2.655,-1.405 4.118,-1.924c0.333,-0.119 0.613,-0.351 0.954,-0.453c1.09,-0.327 2.257,-0.506 3.359,-0.845c0.751,3.472 1.92,6.855 3.309,9.911c0.229,0.502 0.822,0.725 1.324,0.496c0.503,-0.228 0.725,-0.822 0.497,-1.324c-1.358,-2.986 -2.503,-6.301 -3.222,-9.697c0.361,-0.133 0.735,-0.221 1.106,-0.323c1.142,-0.316 2.442,-0.816 3.647,-0.66c2.086,0.269 4.162,0.78 6.219,1.213c1.214,0.256 2.481,0.357 3.67,0.723c1.024,0.315 1.945,0.929 2.945,1.304c0.002,0.001 0.005,0.002 0.008,0.003c0.165,0.084 0.354,0.123 0.552,0.103c0.549,-0.055 0.95,-0.545 0.895,-1.095c-0.045,-0.455 -0.281,-0.984 -0.664,-1.507c-0.633,-0.865 -1.69,-1.772 -2.161,-2.272c-1.654,-1.757 -4.266,-3.835 -6.737,-4.246c-1.989,-0.332 -4.538,0.332 -6.36,1.125c-1.396,0.607 -2.587,1.446 -3.653,2.511c-0.153,-1.186 -0.247,-2.374 -0.274,-3.552c2.376,0.627 4.971,-0.048 7.27,-0.859c5.919,-2.089 13.562,-6.324 15.709,-12.765c0.144,-0.432 -0.024,-0.894 -0.382,-1.14c-0.335,-0.347 -0.884,-0.409 -1.292,-0.124c-2.866,2.007 -5.765,3.88 -9.009,5.249c-3.043,1.283 -6.318,1.786 -9.294,3.301c-0.932,0.475 -1.866,0.982 -2.711,1.606c0.409,-2.666 1.277,-5.502 2.349,-8.213c0.087,-0.069 0.163,-0.153 0.225,-0.25c3.313,-0.169 7.26,-2.433 9.382,-4.782c1.04,-1.151 1.905,-2.527 1.905,-4.14c0,-0.059 -0.005,-0.116 -0.014,-0.171c-0.004,-0.04 -0.009,-0.079 -0.017,-0.119c-0.108,-0.541 -0.635,-0.893 -1.177,-0.784c-1.937,0.387 -4.042,1.09 -5.588,2.356c-0.742,0.606 -1.375,1.331 -2.023,2.041c1.139,-2.115 2.692,-3.979 3.766,-6.144c0.346,-0.697 0.682,-1.412 1.009,-2.141c4.625,-0.085 7.505,-1.649 9.998,-3.643c2.496,-1.996 5.405,-6.405 6.089,-7.362c0.32,-0.449 0.216,-1.074 -0.233,-1.395c-0.018,-0.013 -0.036,-0.025 -0.055,-0.036c-0.262,-0.182 -0.606,-0.235 -0.926,-0.114c-3.934,1.499 -8.192,3.526 -11.518,6.102c-0.429,0.332 -0.83,0.684 -1.211,1.054c1.22,-3.471 2.204,-7.079 2.888,-10.554c1.246,-0.619 2.663,-0.759 3.869,-1.513c4.031,-2.519 6.47,-6.488 7.975,-10.911c0.53,-1.557 1.07,-3.08 1.07,-4.75c-0,-0.036 -0.002,-0.071 -0.006,-0.106c0.027,-0.257 -0.045,-0.525 -0.222,-0.74c-0.351,-0.426 -0.982,-0.487 -1.408,-0.136c-2.477,2.04 -4.927,4.076 -6.868,6.654c-1.193,1.583 -2.172,3.309 -3.182,5.015c0.344,-3.078 0.207,-6.176 -0.613,-9.294c-0.335,-1.273 -1.11,-2.329 -1.61,-3.53c-0.555,-1.332 -0.811,-2.968 -0.811,-4.405c0,-0.093 -0.012,-0.183 -0.036,-0.268c0.022,-0.387 -0.183,-0.769 -0.551,-0.953c-0.494,-0.247 -1.095,-0.047 -1.342,0.447c-1.99,3.98 -2.722,8.291 -2.722,12.725c-0,1.886 0.03,4.227 0.856,5.966c0.607,1.279 1.594,2.334 2.657,3.25c0.278,0.239 0.636,0.475 0.967,0.735c0.084,0.065 0.168,0.13 0.245,0.199Zm-17.62,50.641c-0.15,-0 -0.299,0 -0.446,0c-2.767,0 -5.981,0.864 -7.629,3.273c-0.266,0.389 -0.417,0.811 -0.537,1.246c0.706,-0.569 1.418,-1.141 2.148,-1.65c1.433,-0.999 2.958,-1.588 4.593,-2.168c0.364,-0.129 0.676,-0.372 1.048,-0.484c0.27,-0.081 0.545,-0.152 0.823,-0.217Zm18.995,-0.592c-1.285,-0.867 -2.726,-1.461 -4.318,-1.704c-1.137,-0.174 -2.318,-0.095 -3.457,-0.039c-0.34,0.016 -0.663,0.039 -0.974,0.071c2.065,0.282 4.12,0.782 6.157,1.211c0.853,0.18 1.731,0.292 2.592,0.461Zm-1.545,-1.963c-1.027,-0.757 -2.163,-1.37 -3.28,-1.556c-1.64,-0.273 -3.731,0.333 -5.233,0.987c-0.076,0.033 -0.151,0.066 -0.225,0.101c0.758,-0.181 1.556,-0.267 2.459,-0.311c1.205,-0.059 2.454,-0.135 3.657,0.049c0.92,0.141 1.795,0.388 2.622,0.73Zm1.959,-10.497c-2.331,1.093 -4.887,1.786 -7.322,2.591c-2.333,0.77 -4.611,1.678 -6.862,2.651c1.844,0.323 3.822,-0.31 5.592,-0.934c2.725,-0.962 5.88,-2.383 8.592,-4.308Zm-24.341,-5.172c0.224,0.765 0.429,1.535 0.707,2.253c0.418,1.084 0.803,2.24 1.314,3.28c0.584,1.189 1.382,2.316 2.056,3.457c0.293,0.498 0.571,0.997 0.858,1.49l-0.007,-0.008c-0.537,-0.553 -0.885,-1.212 -1.324,-1.836c-1.836,-2.605 -2.995,-5.551 -3.604,-8.636Zm0.872,-0.497c0.248,0.809 0.473,1.626 0.768,2.39c0.408,1.057 0.781,2.185 1.279,3.2c0.572,1.166 1.358,2.269 2.019,3.389c0.305,0.516 0.591,1.035 0.889,1.545c-0.06,-0.265 -0.128,-0.529 -0.21,-0.791c-0.718,-2.283 -1.721,-4.509 -2.889,-6.598c-0.595,-1.066 -1.21,-2.109 -1.856,-3.135Zm27.85,1.412c-2.07,1.333 -4.205,2.543 -6.504,3.513c-2.999,1.266 -6.232,1.748 -9.164,3.241c-0.864,0.44 -1.735,0.903 -2.509,1.491c2.023,-0.857 4.07,-1.656 6.16,-2.347c2.549,-0.842 5.234,-1.554 7.642,-2.754c1.278,-0.637 2.51,-1.446 3.713,-2.273c0.233,-0.283 0.455,-0.573 0.662,-0.871Zm-7.713,-9.564c-1.172,0.342 -2.328,0.838 -3.243,1.587c-1.101,0.9 -1.95,2.079 -2.987,3.051c-0.218,0.205 -0.492,0.426 -0.788,0.66c2.257,-0.694 4.534,-2.212 5.916,-3.742c0.426,-0.471 0.839,-0.984 1.102,-1.556Zm-10.416,-12.17c-0.17,4.626 -0.439,9.243 -0.056,13.869c0.093,1.117 -0.078,2.284 0.06,3.406c0.096,-0.996 0.032,-2 0.106,-3.032c0.34,-4.764 0.077,-9.475 -0.11,-14.243Zm-1.07,1.821c-0.018,0.071 -0.035,0.142 -0.053,0.213c-0.926,3.705 -1.484,7.702 -0.537,11.489c0.158,0.633 0.379,1.269 0.633,1.904c0.009,-0.496 0.015,-0.99 -0.025,-1.476c-0.335,-4.046 -0.177,-8.086 -0.018,-12.13Zm21.204,-3.922c-0.114,0.084 -0.228,0.168 -0.344,0.25c-0.793,0.562 -1.662,1.015 -2.42,1.626c-0.488,0.394 -0.913,0.851 -1.394,1.248c-1.072,0.886 -2.279,1.69 -3.526,2.403c2.003,-0.571 3.551,-1.541 4.958,-2.666c0.902,-0.721 1.856,-1.779 2.726,-2.861Zm-1.722,-0.036c-1.844,0.952 -3.617,2.029 -5.173,3.235c-0.698,0.541 -1.312,1.142 -1.883,1.793c1.408,-0.764 2.784,-1.648 3.983,-2.638c0.484,-0.401 0.912,-0.86 1.403,-1.256c0.525,-0.423 1.101,-0.774 1.67,-1.134Zm-16.307,-10.953c1.084,3.129 3.053,6.323 5.241,8.55c0.322,0.327 0.829,0.869 1.395,1.362c-0.409,-1.916 -1.181,-3.993 -2.196,-5.405c-0.723,-1.006 -1.693,-1.866 -2.517,-2.793c-0.446,-0.502 -1.156,-1.204 -1.923,-1.714Zm21.489,-9.822c-1.359,3.929 -3.505,7.477 -7.094,9.72c-0.066,0.042 -0.134,0.081 -0.201,0.119c1.527,-1.543 2.696,-3.331 3.961,-5.168c1.083,-1.572 2.193,-3.134 3.334,-4.671Zm-12.879,-5.955c-0.041,0.728 -0.068,1.456 -0.025,2.188c0.076,1.269 0.221,2.63 0.467,3.88c0.173,0.876 0.457,1.728 0.57,2.617c0.27,2.118 0.359,4.251 0.621,6.369c0.033,0.025 0.067,0.049 0.101,0.074c0.807,-3.804 0.942,-7.644 -0.077,-11.516c-0.312,-1.184 -1.057,-2.154 -1.522,-3.269c-0.047,-0.113 -0.092,-0.227 -0.135,-0.343Zm12.391,4.937c-1.232,1.117 -2.395,2.303 -3.408,3.648c-1.526,2.027 -2.703,4.29 -4.045,6.442c1.458,-1.485 2.57,-3.207 3.783,-4.968c1.189,-1.727 2.411,-3.44 3.67,-5.122Zm-13.434,-3.227c-0.308,1.77 -0.438,3.579 -0.438,5.409c-0,1.612 -0.044,3.622 0.662,5.108c0.327,0.689 0.801,1.289 1.336,1.832c-0.175,-1.748 -0.275,-3.503 -0.497,-5.248c-0.11,-0.866 -0.391,-1.696 -0.559,-2.55c-0.254,-1.293 -0.406,-2.701 -0.484,-4.014c-0.011,-0.179 -0.017,-0.358 -0.02,-0.537Z"/>
</g>
</svg>